<svg xmlns="http://www.w3.org/2000/svg" viewBox="0 0 100 100">
  <!-- Cabelo preto -->
  <ellipse cx="50" cy="38" rx="26" ry="24" fill="#1a1a1a"/>
  <!-- Rosto amarelo -->
  <circle cx="50" cy="44" r="22" fill="#FFD93D"/>
  <!-- Cabelo franja -->
  <path d="M28 38 Q36 18 50 20 Q64 18 72 38 Q68 26 50 24 Q32 26 28 38Z" fill="#1a1a1a"/>
  <!-- Olhos -->
  <circle cx="41" cy="42" r="2.5" fill="#1a1a1a"/>
  <circle cx="59" cy="42" r="2.5" fill="#1a1a1a"/>
  <!-- Sorriso -->
  <path d="M40 52 Q50 60 60 52" stroke="#1a1a1a" stroke-width="2" fill="none" stroke-linecap="round"/>
  <!-- Corpo jaleco branco -->
  <path d="M28 68 Q30 62 50 64 Q70 62 72 68 L74 92 L26 92 Z" fill="#ffffff" stroke="#e0e0e0" stroke-width="1"/>
  <!-- Estetoscópio -->
  <path d="M42 64 Q38 74 42 80" stroke="#4CC9F0" stroke-width="2.5" fill="none" stroke-linecap="round"/>
  <circle cx="42" cy="82" r="3.5" fill="#4CC9F0"/>
  <!-- Cruz médica -->
  <rect x="55" y="72" width="4" height="12" rx="1" fill="#FF4D6D"/>
  <rect x="52" y="75" width="10" height="4" rx="1" fill="#FF4D6D"/>
</svg>
